{
  "accessors": [
    {
      "bufferView": 2,
      "componentType": 5126,
      "count": 1442,
      "max": [
        66.32778930664063,
        57.334861755371094,
        3.030704975128174
      ],
      "min": [
        -66.32778930664063,
        7.380753040313721,
        -20.09572982788086
      ],
      "type": "VEC3"
    },
    {
      "bufferView": 2,
      "byteOffset": 17304,
      "componentType": 5126,
      "count": 1442,
      "max": [
        0.9993513822555542,
        0.9932736158370972,
        0.9977538585662842
      ],
      "min": [
        -0.9993513822555542,
        -0.9821348786354065,
        -0.9993367791175842
      ],
      "type": "VEC3"
    },
    {
      "bufferView": 3,
      "componentType": 5126,
      "count": 1442,
      "max": [
        0.9999915957450867,
        0.8267751336097717,
        0.9972823858261108,
        1.0
      ],
      "min": [
        -0.9999915957450867,
        -0.999003529548645,
        -0.9999759197235107,
        -1.0
      ],
      "type": "VEC4"
    },
    {
      "bufferView": 1,
      "componentType": 5126,
      "count": 1442,
      "max": [
        0.6202359795570374,
        0.8813340067863464
      ],
      "min": [
        0.12005399912595749,
        0.6751689910888672
      ],
      "type": "VEC2"
    },
    {
      "bufferView": 0,
      "componentType": 5125,
      "count": 7344,
      "type": "SCALAR"
    },
    {
      "bufferView": 2,
      "byteOffset": 34608,
      "componentType": 5126,
      "count": 602,
      "max": [
        64.56245422363281,
        215.49212646484375,
        2.221096992492676
      ],
      "min": [
        -64.56245422363281,
        176.2346649169922,
        -11.319174766540527
      ],
      "type": "VEC3"
    },
    {
      "bufferView": 2,
      "byteOffset": 41832,
      "componentType": 5126,
      "count": 602,
      "max": [
        0.9980442523956299,
        0.9595244526863098,
        0.9937978982925415
      ],
      "min": [
        -0.9980442523956299,
        -0.977870762348175,
        -0.9981897473335266
      ],
      "type": "VEC3"
    },
    {
      "bufferView": 3,
      "byteOffset": 23072,
      "componentType": 5126,
      "count": 602,
      "max": [
        0.9982879161834717,
        0.9782906174659729,
        0.9991129040718079,
        1.0
      ],
      "min": [
        -0.9982879161834717,
        -0.7657622694969177,
        -0.9917919635772705,
        -1.0
      ],
      "type": "VEC4"
    },
    {
      "bufferView": 1,
      "byteOffset": 11536,
      "componentType": 5126,
      "count": 602,
      "max": [
        0.848239004611969,
        0.9568459987640381
      ],
      "min": [
        0.0024870000779628754,
        0.6495460271835327
      ],
      "type": "VEC2"
    },
    {
      "bufferView": 0,
      "byteOffset": 29376,
      "componentType": 5125,
      "count": 2940,
      "type": "SCALAR"
    },
    {
      "bufferView": 2,
      "byteOffset": 49056,
      "componentType": 5126,
      "count": 1362,
      "max": [
        65.83589172363281,
        285.6040344238281,
        4.6424880027771
      ],
      "min": [
        -65.85560607910156,
        233.77117919921875,
        -11.321032524108887
      ],
      "type": "VEC3"
    },
    {
      "bufferView": 2,
      "byteOffset": 65400,
      "componentType": 5126,
      "count": 1362,
      "max": [
        0.9973275065422058,
        0.999983012676239,
        0.9999473690986633
      ],
      "min": [
        -0.9967647790908813,
        -0.9998002648353577,
        -0.999890148639679
      ],
      "type": "VEC3"
    },
    {
      "bufferView": 3,
      "byteOffset": 32704,
      "componentType": 5126,
      "count": 1362,
      "max": [
        0.9998829960823059,
        0.9981504678726196,
        0.9994752407073975,
        1.0
      ],
      "min": [
        -0.9989194273948669,
        -0.9999141097068787,
        -0.9999932646751404,
        1.0
      ],
      "type": "VEC4"
    },
    {
      "bufferView": 1,
      "byteOffset": 16352,
      "componentType": 5126,
      "count": 1362,
      "max": [
        0.9503570199012756,
        0.9691460132598877
      ],
      "min": [
        0.12005399912595749,
        0.22032000124454498
      ],
      "type": "VEC2"
    },
    {
      "bufferView": 0,
      "byteOffset": 41136,
      "componentType": 5125,
      "count": 6348,
      "type": "SCALAR"
    },
    {
      "bufferView": 2,
      "byteOffset": 81744,
      "componentType": 5126,
      "count": 206,
      "max": [
        71.97847747802734,
        13.100051879882813,
        2.29010009765625
      ],
      "min": [
        -71.97847747802734,
        0.05400099977850914,
        -18.800025939941406
      ],
      "type": "VEC3"
    },
    {
      "bufferView": 2,
      "byteOffset": 84216,
      "componentType": 5126,
      "count": 206,
      "max": [
        1.0,
        0.9582529067993164,
        1.0
      ],
      "min": [
        -1.0,
        -1.0,
        -1.0
      ],
      "type": "VEC3"
    },
    {
      "bufferView": 3,
      "byteOffset": 54496,
      "componentType": 5126,
      "count": 206,
      "max": [
        1.0,
        1.0,
        1.0,
        1.0
      ],
      "min": [
        -1.0,
        -0.26089754700660706,
        -0.9430642127990723,
        1.0
      ],
      "type": "VEC4"
    },
    {
      "bufferView": 1,
      "byteOffset": 27248,
      "componentType": 5126,
      "count": 206,
      "max": [
        0.9711909890174866,
        0.912913978099823
      ],
      "min": [
        0.3690530061721802,
        0.37213701009750366
      ],
      "type": "VEC2"
    },
    {
      "bufferView": 0,
      "byteOffset": 66528,
      "componentType": 5125,
      "count": 468,
      "type": "SCALAR"
    },
    {
      "bufferView": 2,
      "byteOffset": 86688,
      "componentType": 5126,
      "count": 21,
      "max": [
        47.87738037109375,
        257.8636779785156,
        -7.776740074157715
      ],
      "min": [
        -47.87738037109375,
        20.022903442382813,
        -7.77677583694458
      ],
      "type": "VEC3"
    },
    {
      "bufferView": 2,
      "byteOffset": 86940,
      "componentType": 5126,
      "count": 21,
      "max": [
        -0.0,
        0.0,
        1.0
      ],
      "min": [
        -0.0,
        0.0,
        1.0
      ],
      "type": "VEC3"
    },
    {
      "bufferView": 3,
      "byteOffset": 57792,
      "componentType": 5126,
      "count": 21,
      "max": [
        0.00027211790438741446,
        4.748351898342662e-07,
        0.0,
        1.0
      ],
      "min": [
        -1.0,
        -1.0,
        0.0,
        1.0
      ],
      "type": "VEC4"
    },
    {
      "bufferView": 1,
      "byteOffset": 28896,
      "componentType": 5126,
      "count": 21,
      "max": [
        0.6234819889068604,
        0.7652850151062012
      ],
      "min": [
        0.3690530061721802,
        0.0024870000779628754
      ],
      "type": "VEC2"
    },
    {
      "bufferView": 0,
      "byteOffset": 68400,
      "componentType": 5125,
      "count": 51,
      "type": "SCALAR"
    },
    {
      "bufferView": 2,
      "byteOffset": 87192,
      "componentType": 5126,
      "count": 924,
      "max": [
        60.72460174560547,
        270.5317687988281,
        -1.5601229667663574
      ],
      "min": [
        -60.72460174560547,
        3.7693939208984375,
        -14.854630470275879
      ],
      "type": "VEC3"
    },
    {
      "bufferView": 2,
      "byteOffset": 98280,
      "componentType": 5126,
      "count": 924,
      "max": [
        1.0,
        1.0,
        1.0
      ],
      "min": [
        -1.0,
        -1.0,
        -1.0
      ],
      "type": "VEC3"
    },
    {
      "bufferView": 3,
      "byteOffset": 58128,
      "componentType": 5126,
      "count": 924,
      "max": [
        0.9999992847442627,
        0.999463677406311,
        1.0,
        1.0
      ],
      "min": [
        -1.0,
        -1.0,
        -1.0,
        1.0
      ],
      "type": "VEC4"
    },
    {
      "bufferView": 1,
      "byteOffset": 29064,
      "componentType": 5126,
      "count": 924,
      "max": [
        0.996554970741272,
        0.9910399913787842
      ],
      "min": [
        0.0024870000779628754,
        0.0024870000779628754
      ],
      "type": "VEC2"
    },
    {
      "bufferView": 0,
      "byteOffset": 68604,
      "componentType": 5125,
      "count": 3015,
      "type": "SCALAR"
    }
  ],
  "asset": {
    "extras": {
      "author": "allyc3d (https://sketchfab.com/AllyC3D)",
      "license": "CC-BY-4.0 (http://creativecommons.org/licenses/by/4.0/)",
      "source": "https://sketchfab.com/3d-models/magic-mirror-184baa16500841ef86fdc94e62017e58",
      "title": "Magic Mirror"
    },
    "generator": "Sketchfab-12.65.0",
    "version": "2.0"
  },
  "bufferViews": [
    {
      "buffer": 0,
      "byteLength": 80664,
      "name": "floatBufferViews",
      "target": 34963
    },
    {
      "buffer": 0,
      "byteLength": 36456,
      "byteOffset": 80664,
      "byteStride": 8,
      "name": "floatBufferViews",
      "target": 34962
    },
    {
      "buffer": 0,
      "byteLength": 109368,
      "byteOffset": 117120,
      "byteStride": 12,
      "name": "floatBufferViews",
      "target": 34962
    },
    {
      "buffer": 0,
      "byteLength": 72912,
      "byteOffset": 226488,
      "byteStride": 16,
      "name": "floatBufferViews",
      "target": 34962
    }
  ],
  "buffers": [
    {
      "byteLength": 299400,
      "uri": "scene.bin"
    }
  ],
  "images": [
    {
      "uri": "textures/default_baseColor.jpeg"
    },
    {
      "uri": "textures/default_metallicRoughness.png"
    },
    {
      "uri": "textures/default_normal.png"
    },
    {
      "uri": "textures/Mirror_baseColor.jpeg"
    },
    {
      "uri": "textures/Mirror_metallicRoughness.png"
    },
    {
      "uri": "textures/Mirror_normal.png"
    }
  ],
  "materials": [
    {
      "doubleSided": true,
      "name": "default",
      "normalTexture": {
        "index": 2
      },
      "occlusionTexture": {
        "index": 1
      },
      "pbrMetallicRoughness": {
        "baseColorTexture": {
          "index": 0
        },
        "metallicRoughnessTexture": {
          "index": 1
        }
      }
    },
    {
      "doubleSided": true,
      "name": "Mirror",
      "normalTexture": {
        "index": 5
      },
      "occlusionTexture": {
        "index": 4
      },
      "pbrMetallicRoughness": {
        "baseColorTexture": {
          "index": 3
        },
        "metallicRoughnessTexture": {
          "index": 4
        }
      }
    }
  ],
  "meshes": [
    {
      "name": "defaultMaterial",
      "primitives": [
        {
          "attributes": {
            "NORMAL": 1,
            "POSITION": 0,
            "TANGENT": 2,
            "TEXCOORD_0": 3
          },
          "indices": 4,
          "material": 0,
          "mode": 4
        }
      ]
    },
    {
      "name": "defaultMaterial",
      "primitives": [
        {
          "attributes": {
            "NORMAL": 6,
            "POSITION": 5,
            "TANGENT": 7,
            "TEXCOORD_0": 8
          },
          "indices": 9,
          "material": 0,
          "mode": 4
        }
      ]
    },
    {
      "name": "defaultMaterial",
      "primitives": [
        {
          "attributes": {
            "NORMAL": 11,
            "POSITION": 10,
            "TANGENT": 12,
            "TEXCOORD_0": 13
          },
          "indices": 14,
          "material": 0,
          "mode": 4
        }
      ]
    },
    {
      "name": "defaultMaterial",
      "primitives": [
        {
          "attributes": {
            "NORMAL": 16,
            "POSITION": 15,
            "TANGENT": 17,
            "TEXCOORD_0": 18
          },
          "indices": 19,
          "material": 0,
          "mode": 4
        }
      ]
    },
    {
      "name": "defaultMaterial",
      "primitives": [
        {
          "attributes": {
            "NORMAL": 21,
            "POSITION": 20,
            "TANGENT": 22,
            "TEXCOORD_0": 23
          },
          "indices": 24,
          "material": 1,
          "mode": 4
        }
      ]
    },
    {
      "name": "defaultMaterial",
      "primitives": [
        {
          "attributes": {
            "NORMAL": 26,
            "POSITION": 25,
            "TANGENT": 27,
            "TEXCOORD_0": 28
          },
          "indices": 29,
          "material": 0,
          "mode": 4
        }
      ]
    }
  ],
  "nodes": [
    {
      "children": [
        1
      ],
      "matrix": [
        1.0,
        0.0,
        0.0,
        0.0,
        0.0,
        2.220446049250313e-16,
        -1.0,
        0.0,
        0.0,
        1.0,
        2.220446049250313e-16,
        0.0,
        0.0,
        0.0,
        0.0,
        1.0
      ],
      "name": "Sketchfab_model"
    },
    {
      "children": [
        2,
        4,
        6,
        8,
        10,
        12
      ],
      "matrix": [
        1.0,
        0.0,
        0.0,
        0.0,
        0.0,
        -4.371139006309477e-08,
        0.999999999999999,
        0.0,
        0.0,
        -0.999999999999999,
        -4.371139006309477e-08,
        0.0,
        0.0,
        0.0,
        0.0,
        1.0
      ],
      "name": "Collada visual scene group"
    },
    {
      "children": [
        3
      ],
      "name": "Portal_swhirl_low"
    },
    {
      "mesh": 0,
      "name": "defaultMaterial"
    },
    {
      "children": [
        5
      ],
      "name": "Portal_wings_low"
    },
    {
      "mesh": 1,
      "name": "defaultMaterial"
    },
    {
      "children": [
        7
      ],
      "name": "Portal_top_low"
    },
    {
      "mesh": 2,
      "name": "defaultMaterial"
    },
    {
      "children": [
        9
      ],
      "name": "Portal_base_low"
    },
    {
      "mesh": 3,
      "name": "defaultMaterial"
    },
    {
      "children": [
        11
      ],
      "name": "Portal_frame_low"
    },
    {
      "mesh": 4,
      "name": "defaultMaterial"
    },
    {
      "children": [
        13
      ],
      "name": "Portal_frame_low"
    },
    {
      "mesh": 5,
      "name": "defaultMaterial"
    }
  ],
  "samplers": [
    {
      "magFilter": 9729,
      "minFilter": 9987,
      "wrapS": 10497,
      "wrapT": 10497
    }
  ],
  "scene": 0,
  "scenes": [
    {
      "name": "Sketchfab_Scene",
      "nodes": [
        0
      ]
    }
  ],
  "textures": [
    {
      "sampler": 0,
      "source": 0
    },
    {
      "sampler": 0,
      "source": 1
    },
    {
      "sampler": 0,
      "source": 2
    },
    {
      "sampler": 0,
      "source": 3
    },
    {
      "sampler": 0,
      "source": 4
    },
    {
      "sampler": 0,
      "source": 5
    }
  ]
}
